<svg xmlns="http://www.w3.org/2000/svg" width="715" height="591" viewBox="0 0 715 591" fill="none">
<path d="M340.912 526.049H64.7786C62.613 526.049 60.5361 525.338 59.0048 524.072C57.4736 522.806 56.6133 521.09 56.6133 519.3V71.6999C56.6321 69.9201 57.5007 68.2186 59.03 66.9656C60.5592 65.7127 62.6253 65.0097 64.7786 65.0098H340.912C341.984 65.0098 343.046 65.1843 344.036 65.5235C345.027 65.8627 345.927 66.3598 346.685 66.9866C347.444 67.6133 348.045 68.3573 348.455 69.1762C348.866 69.995 349.077 70.8727 349.077 71.759V519.3C349.077 520.186 348.866 521.064 348.455 521.882C348.045 522.701 347.444 523.445 346.685 524.072C345.927 524.699 345.027 525.196 344.036 525.535C343.046 525.874 341.984 526.049 340.912 526.049ZM64.7786 65.2462C62.709 65.2493 60.7252 65.9302 59.2618 67.1399C57.7984 68.3495 56.9746 69.9892 56.9708 71.6999V519.3C56.9746 521.01 57.7984 522.65 59.2618 523.86C60.7252 525.069 62.709 525.75 64.7786 525.753H340.912C342.981 525.75 344.965 525.069 346.428 523.86C347.892 522.65 348.716 521.01 348.719 519.3V71.6999C348.716 69.9892 347.892 68.3495 346.428 67.1399C344.965 65.9302 342.981 65.2493 340.912 65.2462H64.7786Z" fill="#EBEBEB"/>
<path d="M650.22 526.049H374.087C371.922 526.049 369.845 525.338 368.313 524.072C366.782 522.806 365.922 521.09 365.922 519.3V71.6999C365.941 69.9201 366.809 68.2186 368.339 66.9656C369.868 65.7127 371.934 65.0097 374.087 65.0098H650.22C652.386 65.0098 654.463 65.7208 655.994 66.9866C657.525 68.2523 658.385 69.969 658.385 71.759V519.3C658.385 520.186 658.174 521.064 657.764 521.882C657.354 522.701 656.752 523.445 655.994 524.072C655.236 524.699 654.336 525.196 653.345 525.535C652.354 525.874 651.292 526.049 650.22 526.049ZM374.087 65.2462C372.018 65.2493 370.034 65.9302 368.57 67.1399C367.107 68.3495 366.283 69.9892 366.279 71.6999V519.3C366.283 521.01 367.107 522.65 368.57 523.86C370.034 525.069 372.018 525.75 374.087 525.753H650.22C652.29 525.75 654.274 525.069 655.737 523.86C657.2 522.65 658.024 521.01 658.028 519.3V71.6999C658.024 69.9892 657.2 68.3495 655.737 67.1399C654.274 65.9302 652.29 65.2493 650.22 65.2462H374.087Z" fill="#EBEBEB"/>
<path d="M161.661 198.871L163.977 202.736L169.154 203.363L165.407 206.377L166.294 210.632L161.661 208.623L157.042 210.632L157.928 206.377L154.182 203.363L159.358 202.736L161.661 198.871Z" fill="#EBEBEB"/>
<path d="M624.481 381.171L626.797 385.048L631.974 385.674L628.227 388.677L629.114 392.944L624.481 390.934L619.862 392.944L620.749 388.677L617.002 385.674L622.179 385.048L624.481 381.171Z" fill="#F5F5F5"/>
<path d="M532.817 493.567L535.133 497.433L540.296 498.059L536.549 501.073L537.436 505.328L532.817 503.319L528.198 505.328L529.07 501.073L525.338 498.059L530.5 497.433L532.817 493.567Z" fill="#F5F5F5"/>
<path d="M323.094 130.197L323.952 131.639L325.883 131.875C325.99 131.887 326.092 131.924 326.175 131.981C326.259 132.039 326.32 132.115 326.353 132.201C326.386 132.286 326.389 132.378 326.361 132.465C326.334 132.551 326.277 132.63 326.197 132.691L324.767 133.814L325.096 135.398C325.113 135.486 325.1 135.576 325.059 135.659C325.018 135.741 324.95 135.813 324.862 135.865C324.775 135.918 324.672 135.949 324.564 135.957C324.457 135.964 324.349 135.946 324.252 135.906L322.536 135.15L320.82 135.906C320.724 135.946 320.616 135.964 320.508 135.957C320.401 135.949 320.298 135.918 320.21 135.865C320.123 135.813 320.055 135.741 320.014 135.659C319.973 135.576 319.96 135.486 319.977 135.398L320.291 133.814L318.861 132.691C318.781 132.629 318.724 132.55 318.697 132.462C318.67 132.374 318.674 132.282 318.709 132.196C318.744 132.11 318.807 132.034 318.893 131.977C318.978 131.921 319.081 131.885 319.19 131.875L321.106 131.639L321.964 130.197C321.999 130.095 322.073 130.005 322.175 129.941C322.277 129.877 322.401 129.842 322.529 129.842C322.657 129.842 322.782 129.877 322.884 129.941C322.986 130.005 323.06 130.095 323.094 130.197Z" fill="#EBEBEB"/>
<path d="M86.9154 475.164L87.7734 476.594L89.6896 476.83C89.7984 476.843 89.9008 476.88 89.9851 476.938C90.0694 476.996 90.1323 477.073 90.1666 477.159C90.2009 477.245 90.2052 477.338 90.179 477.426C90.1528 477.514 90.0972 477.594 90.0185 477.658L88.5885 478.769L88.9174 480.353C88.9343 480.441 88.9214 480.531 88.8801 480.614C88.8389 480.696 88.7709 480.768 88.6836 480.82C88.5964 480.873 88.4932 480.904 88.3856 480.912C88.278 480.919 88.17 480.901 88.0737 480.861L86.3577 480.116L84.6417 480.861C84.5453 480.901 84.4374 480.919 84.3298 480.912C84.2221 480.904 84.119 480.873 84.0317 480.82C83.9445 480.768 83.8765 480.696 83.8352 480.614C83.794 480.531 83.7811 480.441 83.798 480.353L84.1269 478.769L82.6969 477.658C82.6185 477.595 82.5626 477.516 82.5357 477.429C82.5088 477.341 82.5119 477.25 82.5446 477.164C82.5772 477.078 82.6382 477.001 82.7207 476.942C82.8032 476.883 82.9039 476.845 83.0115 476.83L84.9277 476.594L85.8 475.164C85.8382 475.066 85.9128 474.981 86.0129 474.921C86.1131 474.861 86.2338 474.829 86.3577 474.829C86.4816 474.829 86.6022 474.861 86.7024 474.921C86.8026 474.981 86.8772 475.066 86.9154 475.164Z" fill="#F5F5F5"/>
<path d="M125.482 115.008L126.34 116.45L128.271 116.675C128.379 116.689 128.479 116.728 128.562 116.787C128.644 116.846 128.705 116.922 128.738 117.008C128.771 117.094 128.774 117.186 128.747 117.273C128.72 117.361 128.664 117.44 128.586 117.502L127.156 118.684L127.484 120.257C127.507 120.346 127.498 120.439 127.459 120.524C127.419 120.609 127.351 120.683 127.262 120.736C127.173 120.79 127.067 120.821 126.956 120.826C126.846 120.832 126.737 120.81 126.641 120.765L124.925 120.02L123.209 120.765C123.113 120.81 123.003 120.832 122.893 120.826C122.783 120.821 122.677 120.79 122.588 120.736C122.499 120.683 122.43 120.609 122.391 120.524C122.351 120.439 122.342 120.346 122.365 120.257L122.68 118.684L121.25 117.502C121.171 117.439 121.115 117.359 121.089 117.271C121.063 117.183 121.067 117.09 121.102 117.004C121.136 116.918 121.199 116.841 121.283 116.783C121.367 116.725 121.47 116.687 121.579 116.675L123.495 116.45L124.41 115.008C124.456 114.923 124.531 114.85 124.626 114.798C124.721 114.747 124.833 114.72 124.946 114.72C125.06 114.72 125.171 114.747 125.266 114.798C125.361 114.85 125.437 114.923 125.482 115.008Z" fill="#EBEBEB"/>
<path d="M123.165 399.894C123.168 400.206 123.059 400.511 122.852 400.771C122.644 401.031 122.348 401.234 122.001 401.355C121.654 401.476 121.271 401.509 120.901 401.449C120.531 401.39 120.191 401.241 119.923 401.022C119.656 400.802 119.473 400.522 119.399 400.217C119.324 399.912 119.361 399.595 119.505 399.307C119.648 399.019 119.892 398.773 120.205 398.6C120.518 398.426 120.886 398.334 121.263 398.334C121.765 398.334 122.247 398.498 122.603 398.79C122.959 399.083 123.161 399.479 123.165 399.894Z" fill="#EBEBEB"/>
<path d="M394.208 203.174C394.211 203.485 394.102 203.79 393.894 204.05C393.687 204.31 393.391 204.514 393.044 204.634C392.697 204.755 392.314 204.788 391.944 204.729C391.574 204.669 391.234 204.521 390.966 204.301C390.699 204.082 390.516 203.802 390.442 203.496C390.367 203.191 390.404 202.874 390.548 202.587C390.691 202.299 390.935 202.052 391.248 201.879C391.561 201.706 391.929 201.613 392.306 201.613C392.555 201.612 392.802 201.651 393.033 201.729C393.264 201.806 393.473 201.921 393.65 202.066C393.827 202.211 393.967 202.384 394.063 202.574C394.159 202.764 394.208 202.968 394.208 203.174Z" fill="#EBEBEB"/>
<path d="M295.595 116.308C295.595 116.619 295.483 116.923 295.274 117.182C295.065 117.44 294.768 117.642 294.421 117.761C294.073 117.88 293.691 117.911 293.322 117.85C292.953 117.79 292.614 117.64 292.348 117.42C292.082 117.2 291.901 116.92 291.828 116.615C291.754 116.31 291.792 115.994 291.936 115.707C292.08 115.42 292.324 115.174 292.636 115.001C292.949 114.829 293.317 114.736 293.693 114.736C294.196 114.739 294.678 114.906 295.034 115.2C295.389 115.494 295.591 115.892 295.595 116.308Z" fill="#F5F5F5"/>
<path d="M298.607 499.446C304.257 498.344 307.756 493.665 306.422 488.995C305.089 484.326 299.428 481.433 293.778 482.536C288.129 483.638 284.63 488.317 285.963 492.987C287.297 497.656 292.957 500.549 298.607 499.446Z" fill="#F0F0F0"/>
<path d="M292.577 485.908C290.424 485.905 288.325 486.468 286.585 487.516C285.697 489.201 285.479 491.076 285.962 492.87C286.446 494.664 287.607 496.285 289.277 497.499C290.948 498.712 293.041 499.456 295.256 499.623C297.471 499.789 299.692 499.37 301.6 498.426C302.445 497.134 302.869 495.684 302.832 494.216C302.795 492.749 302.297 491.315 301.387 490.054C300.477 488.793 299.187 487.749 297.643 487.025C296.099 486.3 294.353 485.919 292.577 485.92V485.908Z" fill="#E6E6E6"/>
<path d="M211.181 339.99H124.166V307.521L211.181 222.015H252.823V309.364H274.402V339.99H252.823V366.561H211.181V339.99ZM211.181 309.364V264.638L165.193 309.364H211.181Z" fill="#1067B2"/>
<path d="M289.289 294.921C289.289 267.9 295.171 248.988 306.935 238.185C318.699 227.381 336.626 221.983 360.717 221.991C372.281 221.991 381.781 223.173 389.217 225.537C395.972 227.549 402.157 230.683 407.392 234.745C411.805 238.227 415.542 242.25 418.475 246.671C421.376 251.288 423.562 256.189 424.981 261.257C428.214 272.085 429.828 283.2 429.786 294.353C429.786 320.137 424.509 339.005 413.956 350.959C403.403 362.913 385.227 368.894 359.43 368.902C344.958 368.902 333.266 366.995 324.352 363.181C315.367 359.305 307.798 353.515 302.43 346.409C298.283 341.176 295.056 334.017 292.749 324.932C290.354 315.052 289.194 304.996 289.289 294.921ZM336.679 295.015C336.679 313.139 338.609 325.499 342.47 332.095C346.331 338.69 351.942 342.004 359.301 342.035C361.637 342.057 363.954 341.695 366.119 340.971C368.285 340.246 370.254 339.174 371.914 337.815C375.479 335.002 378.101 330.558 379.779 324.482C381.457 318.407 382.296 308.951 382.296 296.114C382.296 277.25 380.36 264.567 376.49 258.066C372.619 251.565 366.814 248.318 359.073 248.326C351.179 248.326 345.459 251.64 341.913 258.267C338.366 264.894 336.622 277.143 336.679 295.015Z" fill="#1067B2"/>
<path d="M531.588 339.99H444.572V307.521L531.588 222.015H573.229V309.364H594.88V339.99H573.229V366.561H531.588V339.99ZM531.588 309.364V264.638L485.613 309.364H531.588Z" fill="#1067B2"/>
<g opacity="0.3">
<path d="M287.43 172.122C287.43 172.56 287.273 172.988 286.979 173.352C286.684 173.715 286.266 173.999 285.776 174.166C285.287 174.333 284.748 174.376 284.229 174.289C283.71 174.203 283.234 173.992 282.86 173.681C282.487 173.371 282.233 172.976 282.132 172.546C282.03 172.117 282.085 171.672 282.29 171.268C282.494 170.865 282.839 170.52 283.281 170.279C283.723 170.037 284.241 169.91 284.77 169.912C285.121 169.912 285.468 169.969 285.792 170.081C286.115 170.192 286.409 170.355 286.656 170.56C286.903 170.766 287.099 171.009 287.232 171.278C287.365 171.546 287.432 171.833 287.43 172.122Z" fill="#407BFF"/>
<path d="M104.347 257.026C105.389 257.026 106.234 256.327 106.234 255.466C106.234 254.604 105.389 253.905 104.347 253.905C103.304 253.905 102.459 254.604 102.459 255.466C102.459 256.327 103.304 257.026 104.347 257.026Z" fill="#407BFF"/>
<path d="M416.201 484.88C417.693 484.88 418.903 483.88 418.903 482.646C418.903 481.412 417.693 480.412 416.201 480.412C414.708 480.412 413.498 481.412 413.498 482.646C413.498 483.88 414.708 484.88 416.201 484.88Z" fill="#407BFF"/>
<path d="M481.194 393.984C482.237 393.984 483.082 393.286 483.082 392.424C483.082 391.562 482.237 390.864 481.194 390.864C480.152 390.864 479.307 391.562 479.307 392.424C479.307 393.286 480.152 393.984 481.194 393.984Z" fill="#407BFF"/>
<path d="M606.562 113.023C606.562 113.331 606.452 113.633 606.244 113.889C606.037 114.146 605.742 114.346 605.397 114.464C605.052 114.582 604.673 114.613 604.306 114.553C603.94 114.493 603.604 114.344 603.34 114.126C603.076 113.908 602.896 113.63 602.823 113.327C602.751 113.024 602.788 112.711 602.931 112.426C603.074 112.14 603.316 111.897 603.626 111.725C603.936 111.554 604.301 111.462 604.675 111.462C605.175 111.462 605.655 111.627 606.009 111.919C606.363 112.212 606.562 112.609 606.562 113.023Z" fill="#407BFF"/>
<path d="M247.031 81.5578C247.031 81.8664 246.92 82.168 246.713 82.4246C246.506 82.6812 246.211 82.8812 245.866 82.9993C245.521 83.1174 245.141 83.1483 244.775 83.0881C244.409 83.0279 244.073 82.8793 243.809 82.6611C243.545 82.4429 243.365 82.1648 243.292 81.8622C243.219 81.5595 243.257 81.2458 243.4 80.9607C243.542 80.6756 243.784 80.4319 244.095 80.2605C244.405 80.0891 244.77 79.9976 245.143 79.9976C245.643 80.0007 246.121 80.166 246.474 80.458C246.827 80.7499 247.027 81.145 247.031 81.5578Z" fill="#407BFF"/>
<path d="M397.11 163.423C398.153 163.423 398.998 162.725 398.998 161.863C398.998 161.001 398.153 160.303 397.11 160.303C396.068 160.303 395.223 161.001 395.223 161.863C395.223 162.725 396.068 163.423 397.11 163.423Z" fill="#407BFF"/>
</g>
<path d="M201.958 163.435C219.262 163.435 233.29 151.84 233.29 137.537C233.29 123.234 219.262 111.64 201.958 111.64C184.654 111.64 170.627 123.234 170.627 137.537C170.627 151.84 184.654 163.435 201.958 163.435Z" fill="#407BFF"/>
<path opacity="0.7" d="M201.958 163.435C219.262 163.435 233.29 151.84 233.29 137.537C233.29 123.234 219.262 111.64 201.958 111.64C184.654 111.64 170.627 123.234 170.627 137.537C170.627 151.84 184.654 163.435 201.958 163.435Z" fill="white"/>
<path opacity="0.2" d="M191.163 117.999C186.896 117.988 182.672 118.7 178.75 120.091C173.931 124.469 171.071 130.079 170.645 135.987C170.22 141.896 172.254 147.747 176.411 152.566C180.567 157.386 186.595 160.884 193.491 162.479C200.387 164.073 207.736 163.668 214.315 161.331C218.393 157.615 221.079 153.001 222.046 148.048C223.013 143.095 222.22 138.016 219.762 133.429C217.305 128.841 213.288 124.943 208.201 122.206C203.114 119.469 197.175 118.011 191.106 118.01L191.163 117.999Z" fill="#1067B2"/>
<path opacity="0.2" d="M188.044 124.843C188.044 125.31 187.876 125.767 187.562 126.156C187.248 126.545 186.801 126.848 186.279 127.027C185.756 127.205 185.181 127.252 184.626 127.161C184.071 127.07 183.562 126.845 183.162 126.514C182.762 126.183 182.49 125.762 182.379 125.304C182.269 124.845 182.325 124.37 182.542 123.938C182.758 123.506 183.125 123.137 183.595 122.877C184.066 122.617 184.619 122.479 185.184 122.479C185.943 122.479 186.67 122.728 187.207 123.171C187.743 123.614 188.044 124.216 188.044 124.843Z" fill="#407BFF"/>
<path opacity="0.2" d="M221.736 122.479C221.736 122.946 221.568 123.403 221.254 123.792C220.939 124.181 220.493 124.484 219.97 124.663C219.447 124.842 218.872 124.889 218.318 124.797C217.763 124.706 217.253 124.481 216.853 124.15C216.453 123.82 216.181 123.399 216.071 122.94C215.96 122.481 216.017 122.006 216.233 121.574C216.45 121.142 216.816 120.773 217.287 120.513C217.757 120.253 218.31 120.115 218.876 120.115C219.634 120.115 220.362 120.364 220.898 120.807C221.434 121.25 221.736 121.852 221.736 122.479Z" fill="#407BFF"/>
<path opacity="0.2" d="M216.016 139.357C216.016 140.124 215.74 140.874 215.225 141.511C214.71 142.149 213.977 142.646 213.12 142.939C212.263 143.233 211.32 143.309 210.41 143.16C209.5 143.01 208.665 142.641 208.009 142.099C207.353 141.557 206.906 140.866 206.725 140.114C206.544 139.362 206.637 138.582 206.992 137.874C207.347 137.165 207.948 136.56 208.719 136.134C209.491 135.708 210.397 135.48 211.325 135.48C212.569 135.48 213.762 135.889 214.642 136.616C215.521 137.343 216.016 138.329 216.016 139.357Z" fill="#407BFF"/>
<path opacity="0.2" d="M201.115 150.409C201.115 151.433 200.747 152.434 200.059 153.285C199.371 154.137 198.393 154.8 197.248 155.192C196.104 155.584 194.844 155.687 193.629 155.487C192.414 155.287 191.298 154.794 190.422 154.07C189.546 153.346 188.95 152.423 188.708 151.419C188.467 150.415 188.591 149.374 189.065 148.428C189.539 147.482 190.342 146.673 191.372 146.104C192.402 145.536 193.613 145.232 194.851 145.232C196.512 145.232 198.106 145.777 199.28 146.748C200.455 147.719 201.115 149.036 201.115 150.409Z" fill="#407BFF"/>
<path d="M573.285 449.924C576.774 437.706 567.62 425.464 552.839 422.58C538.057 419.697 523.247 427.263 519.758 439.481C516.27 451.699 525.424 463.941 540.205 466.824C554.986 469.708 569.797 462.141 573.285 449.924Z" fill="#407BFF"/>
<path opacity="0.3" d="M573.285 449.924C576.774 437.706 567.62 425.464 552.839 422.58C538.057 419.697 523.247 427.263 519.758 439.481C516.27 451.699 525.424 463.941 540.205 466.824C554.986 469.708 569.797 462.141 573.285 449.924Z" fill="white"/>
<path opacity="0.4" d="M563.891 427.104C557.795 425.583 551.25 425.859 545.372 427.884C539.495 429.91 534.651 433.559 531.668 438.209C528.685 442.859 527.747 448.221 529.016 453.379C530.284 458.536 533.68 463.17 538.623 466.488C541.187 467.132 543.852 467.458 546.531 467.457C552.208 467.456 557.746 466.003 562.383 463.297C567.021 460.591 570.532 456.764 572.434 452.343C574.336 447.922 574.536 443.122 573.007 438.603C571.477 434.084 568.293 430.067 563.891 427.104Z" fill="#407BFF"/>
<path d="M520.276 451.524C490.918 462.942 512.811 471.748 554.181 459.455C592.491 448.073 607.091 433.723 572.771 438.179C574.616 444.148 526.639 459.597 520.276 451.524Z" fill="#1067B2"/>
<path opacity="0.2" d="M563.563 222.015C525.11 243.492 475.332 271.86 461.59 339.991H458.658C472.029 272.617 519.991 243.575 558.458 222.015H563.563Z" fill="black"/>
<path d="M364.649 435.295C340.339 435.295 316.301 426.229 304.589 411.431C297.368 402.282 288.974 383.122 313.97 357.555L316.187 359.044C298.512 377.129 295.252 395.273 306.992 410.142C321.292 428.227 355.026 437.328 383.826 430.851C413.327 424.22 431.23 403.015 432.961 372.673C438.866 268.881 505.576 236.908 554.282 213.564C584.555 199.061 606.42 188.588 601.615 166.473C600.943 163.412 599.47 161.296 597.082 159.996C590.861 156.603 578.706 158.955 564.635 161.662C537.022 166.981 499.212 174.262 476.69 142.597L479.164 141.415C500.614 171.591 535.749 164.818 563.991 159.381C578.706 156.556 591.405 154.109 598.655 158.045C601.729 159.712 603.617 162.348 604.375 166.083C609.537 189.817 585.785 201.212 555.683 215.632C507.535 238.705 441.612 270.3 435.778 372.838C433.976 404.28 415.3 426.277 384.526 433.191C378.043 434.618 371.359 435.326 364.649 435.295Z" fill="#407BFF"/>
<path opacity="0.2" d="M364.649 435.295C340.339 435.295 316.301 426.229 304.589 411.431C297.368 402.282 288.974 383.122 313.97 357.555L316.187 359.044C298.512 377.129 295.252 395.273 306.992 410.142C321.292 428.227 355.026 437.328 383.826 430.851C413.327 424.22 431.23 403.015 432.961 372.673C438.866 268.881 505.576 236.908 554.282 213.564C584.555 199.061 606.42 188.588 601.615 166.473C600.943 163.412 599.47 161.296 597.082 159.996C590.861 156.603 578.706 158.955 564.635 161.662C537.022 166.981 499.212 174.262 476.69 142.597L479.164 141.415C500.614 171.591 535.749 164.818 563.991 159.381C578.706 156.556 591.405 154.109 598.655 158.045C601.729 159.712 603.617 162.348 604.375 166.083C609.537 189.817 585.785 201.212 555.683 215.632C507.535 238.705 441.612 270.3 435.778 372.838C433.976 404.28 415.3 426.277 384.526 433.191C378.043 434.618 371.359 435.326 364.649 435.295Z" fill="#1067B2"/>
<path d="M447.246 114.654C453.835 114.685 460.381 115.534 466.665 117.171C466.665 117.171 482.396 139.358 484.255 144.44C483.597 149.452 473.372 157.667 473.372 157.667L447.246 114.654Z" fill="#407BFF"/>
<path opacity="0.3" d="M447.246 114.654C453.835 114.685 460.381 115.534 466.665 117.171C466.665 117.171 482.396 139.358 484.255 144.44C483.597 149.452 473.372 157.667 473.372 157.667L447.246 114.654Z" fill="white"/>
<path d="M493.835 222.37C487.778 216.247 482.253 209.777 477.304 203.009C476.103 201.299 474.964 199.557 473.887 197.784C473.272 196.779 472.685 195.775 472.113 194.758C471.363 193.769 470.781 192.699 470.383 191.579C468.667 176.603 474.873 165.575 468.953 153.554L445.387 161.166C445.387 161.166 447.389 182.584 451.965 195.444C454.825 203.399 461.231 210.278 467.423 216.649C469.354 218.635 471.213 220.679 473.143 222.677C475.074 224.675 477.018 226.294 478.863 228.173C481.652 231.022 482.567 233.752 480.465 237.109L480.107 237.641C479.507 238.516 482.309 239.509 484.083 237.641C486.943 234.592 486.542 234.781 489.03 232.18C490.546 230.608 492.276 228.894 493.778 227.452C494.502 226.743 494.904 225.848 494.915 224.92C494.925 223.992 494.543 223.09 493.835 222.37Z" fill="#407BFF"/>
<path opacity="0.7" d="M493.835 222.37C487.778 216.247 482.253 209.777 477.304 203.009C476.103 201.299 474.964 199.557 473.887 197.784C473.272 196.779 472.685 195.775 472.113 194.758C471.363 193.769 470.781 192.699 470.383 191.579C468.667 176.603 474.873 165.575 468.953 153.554L445.387 161.166C445.387 161.166 447.389 182.584 451.965 195.444C454.825 203.399 461.231 210.278 467.423 216.649C469.354 218.635 471.213 220.679 473.143 222.677C475.074 224.675 477.018 226.294 478.863 228.173C481.652 231.022 482.567 233.752 480.465 237.109L480.107 237.641C479.507 238.516 482.309 239.509 484.083 237.641C486.943 234.592 486.542 234.781 489.03 232.18C490.546 230.608 492.276 228.894 493.778 227.452C494.502 226.743 494.904 225.848 494.915 224.92C494.925 223.992 494.543 223.09 493.835 222.37Z" fill="white"/>
<path opacity="0.3" d="M488.073 216.211C484.334 219.525 480.183 222.504 475.689 225.1C476.304 225.667 476.905 226.282 477.52 226.826C482.019 224.314 486.104 221.33 489.675 217.949L488.073 216.211Z" fill="#407BFF"/>
<path opacity="0.3" d="M493.835 222.37L493.663 222.204C492.563 223.247 491.923 224.568 491.847 225.951C491.755 226.9 491.941 227.852 492.39 228.729L493.749 227.393C494.459 226.691 494.855 225.809 494.871 224.894C494.886 223.979 494.521 223.088 493.835 222.37Z" fill="#407BFF"/>
<path d="M441.641 128.838C439.086 132 436.021 134.859 432.532 137.337C430.597 138.715 428.476 139.905 426.211 140.883C425.021 141.387 423.788 141.817 422.522 142.171L421.549 142.431L421.235 142.502L420.563 142.656C420.149 142.737 419.728 142.792 419.304 142.821C418.098 142.897 416.884 142.806 415.715 142.549C414.24 142.203 412.826 141.699 411.511 141.048C410.452 140.537 409.426 139.98 408.436 139.382C406.648 138.282 404.939 137.098 403.317 135.836C400.189 133.386 397.318 130.721 394.737 127.869C394.24 127.313 393.993 126.632 394.039 125.942C394.085 125.252 394.42 124.597 394.988 124.09C395.556 123.582 396.32 123.255 397.149 123.164C397.978 123.073 398.819 123.223 399.527 123.59H399.642C403.017 125.363 406.42 127.231 409.738 128.897C411.425 129.713 413.055 130.54 414.671 131.178C415.409 131.498 416.168 131.782 416.945 132.029C417.429 132.206 417.947 132.31 418.475 132.337C418.561 132.337 418.475 132.254 417.946 132.266C417.779 132.258 417.612 132.258 417.445 132.266L417.131 132.325L417.603 132.124C418.238 131.841 418.854 131.53 419.447 131.19C420.727 130.445 421.923 129.606 423.022 128.684C425.52 126.52 427.86 124.235 430.029 121.841C431.218 120.742 432.86 120.049 434.634 119.9C436.408 119.75 438.185 120.154 439.618 121.031C441.05 121.909 442.034 123.198 442.377 124.644C442.719 126.09 442.396 127.591 441.469 128.85L441.641 128.838Z" fill="#407BFF"/>
<path opacity="0.7" d="M441.641 128.838C439.086 132 436.021 134.859 432.532 137.337C430.597 138.715 428.476 139.905 426.211 140.883C425.021 141.387 423.788 141.817 422.522 142.171L421.549 142.431L421.235 142.502L420.563 142.656C420.149 142.737 419.728 142.792 419.304 142.821C418.098 142.897 416.884 142.806 415.715 142.549C414.24 142.203 412.826 141.699 411.511 141.048C410.452 140.537 409.426 139.98 408.436 139.382C406.648 138.282 404.939 137.098 403.317 135.836C400.189 133.386 397.318 130.721 394.737 127.869C394.24 127.313 393.993 126.632 394.039 125.942C394.085 125.252 394.42 124.597 394.988 124.09C395.556 123.582 396.32 123.255 397.149 123.164C397.978 123.073 398.819 123.223 399.527 123.59H399.642C403.017 125.363 406.42 127.231 409.738 128.897C411.425 129.713 413.055 130.54 414.671 131.178C415.409 131.498 416.168 131.782 416.945 132.029C417.429 132.206 417.947 132.31 418.475 132.337C418.561 132.337 418.475 132.254 417.946 132.266C417.779 132.258 417.612 132.258 417.445 132.266L417.131 132.325L417.603 132.124C418.238 131.841 418.854 131.53 419.447 131.19C420.727 130.445 421.923 129.606 423.022 128.684C425.52 126.52 427.86 124.235 430.029 121.841C431.218 120.742 432.86 120.049 434.634 119.9C436.408 119.75 438.185 120.154 439.618 121.031C441.05 121.909 442.034 123.198 442.377 124.644C442.719 126.09 442.396 127.591 441.469 128.85L441.641 128.838Z" fill="white"/>
<path d="M389.374 121.06L391.047 123.424C391.047 123.424 392.32 126.521 394.88 127.089L401.829 125.233L401.472 124.748C400.585 123.637 400.685 121.474 400.986 119.678C401.286 117.881 400.171 117.822 399.341 118.271C398.753 118.83 398.341 119.5 398.14 120.221C397.799 119.831 397.421 119.463 397.01 119.122L394.894 117.373C394.45 117.014 393.858 116.807 393.238 116.794C392.617 116.781 392.013 116.962 391.548 117.302L389.832 118.566C389.425 118.878 389.158 119.294 389.075 119.747C388.991 120.2 389.097 120.663 389.374 121.06Z" fill="#407BFF"/>
<path opacity="0.7" d="M389.374 121.06L391.047 123.424C391.047 123.424 392.32 126.521 394.88 127.089L401.829 125.233L401.472 124.748C400.585 123.637 400.685 121.474 400.986 119.678C401.286 117.881 400.171 117.822 399.341 118.271C398.753 118.83 398.341 119.5 398.14 120.221C397.799 119.831 397.421 119.463 397.01 119.122L394.894 117.373C394.45 117.014 393.858 116.807 393.238 116.794C392.617 116.781 392.013 116.962 391.548 117.302L389.832 118.566C389.425 118.878 389.158 119.294 389.075 119.747C388.991 120.2 389.097 120.663 389.374 121.06Z" fill="white"/>
<path d="M454.268 112.55C446.559 114.239 439.175 116.813 432.332 120.198C431.264 120.75 430.426 121.559 429.93 122.516C429.435 123.473 429.305 124.532 429.558 125.552C432.318 136.71 438.595 151.651 445.373 161.166L476.991 150.351C477.205 145.741 469.526 130.824 461.704 116.404C460.303 113.815 457.6 111.888 454.268 112.55Z" fill="#407BFF"/>
<path opacity="0.8" d="M454.268 112.55C446.559 114.239 439.175 116.813 432.332 120.198C431.264 120.75 430.426 121.559 429.93 122.516C429.435 123.473 429.305 124.532 429.558 125.552C432.318 136.71 438.595 151.651 445.373 161.166L476.991 150.351C477.205 145.741 469.526 130.824 461.704 116.404C460.303 113.815 457.6 111.888 454.268 112.55Z" fill="white"/>
<path opacity="0.3" d="M466.608 125.54L460.33 123.803C461.76 126.84 466.808 130.682 470.34 132.94C469.196 130.576 467.923 128.093 466.608 125.54Z" fill="#407BFF"/>
<path d="M452.194 100.848C449.577 96.7349 443.928 94.6664 437.15 95.1273C431.43 95.5292 426.368 100.352 426.968 102.952C427.569 105.553 432.374 106.664 433.289 107.562L429.328 109.926C428.859 110.206 428.463 110.561 428.164 110.971C427.866 111.381 427.67 111.836 427.59 112.31C427.51 112.784 427.547 113.266 427.698 113.728C427.849 114.189 428.112 114.621 428.47 114.997C430.143 116.746 432.345 118.543 433.618 119.867C444.572 119.63 452.68 116.179 455.611 112.857C454.51 108.649 454.739 104.938 452.194 100.848Z" fill="#407BFF"/>
<path opacity="0.8" d="M452.194 100.848C449.577 96.7349 443.928 94.6664 437.15 95.1273C431.43 95.5292 426.368 100.352 426.968 102.952C427.569 105.553 432.374 106.664 433.289 107.562L429.328 109.926C428.859 110.206 428.463 110.561 428.164 110.971C427.866 111.381 427.67 111.836 427.59 112.31C427.51 112.784 427.547 113.266 427.698 113.728C427.849 114.189 428.112 114.621 428.47 114.997C430.143 116.746 432.345 118.543 433.618 119.867C444.572 119.63 452.68 116.179 455.611 112.857C454.51 108.649 454.739 104.938 452.194 100.848Z" fill="white"/>
<path d="M446.817 103.401C447.594 105.05 447.763 106.852 447.302 108.579C446.841 110.307 445.771 111.883 444.226 113.108C442.682 114.333 440.732 115.152 438.625 115.462C436.517 115.771 434.346 115.557 432.386 114.847C430.425 114.137 428.763 112.962 427.611 111.471C426.458 109.98 425.865 108.24 425.908 106.471C425.952 104.703 426.628 102.984 427.853 101.533C429.077 100.082 430.795 98.9631 432.789 98.3186C435.464 97.457 438.445 97.5083 441.075 98.4612C443.705 99.4141 445.77 101.191 446.817 103.401Z" fill="#263238"/>
<path d="M539.668 209.923C539.511 206.035 539.296 206.377 539.168 203.103C539.082 201.094 539.068 198.86 539.053 196.933C539.048 196.018 538.662 195.133 537.958 194.426C537.255 193.72 536.278 193.236 535.192 193.056C533.305 192.737 531.403 192.442 529.472 192.111C526.998 191.673 524.553 191.201 522.136 190.621C520.249 190.172 518.39 189.676 516.545 189.12C514.7 188.565 512.627 187.938 510.711 187.205C508.451 186.413 506.22 185.562 504.018 184.676C501.544 183.707 499.099 182.69 496.654 181.662C487.244 168.79 487.044 160.303 476.948 150.351L455.27 158.459C455.27 158.459 471.2 181.815 482.039 191.721C488.288 197.418 498.084 199.995 506.821 201.862C513.127 203.198 519.519 204.226 525.912 205.207C528.4 205.585 531.102 205.727 533.247 206.957C534.834 207.962 535.923 209.412 536.308 211.034C536.403 211.365 536.489 211.696 536.565 212.027C536.837 213.02 539.768 212.264 539.668 209.923Z" fill="#407BFF"/>
<path opacity="0.8" d="M539.668 209.923C539.511 206.035 539.296 206.377 539.168 203.103C539.082 201.094 539.068 198.86 539.053 196.933C539.048 196.018 538.662 195.133 537.958 194.426C537.255 193.72 536.278 193.236 535.192 193.056C533.305 192.737 531.403 192.442 529.472 192.111C526.998 191.673 524.553 191.201 522.136 190.621C520.249 190.172 518.39 189.676 516.545 189.12C514.7 188.565 512.627 187.938 510.711 187.205C508.451 186.413 506.22 185.562 504.018 184.676C501.544 183.707 499.099 182.69 496.654 181.662C487.244 168.79 487.044 160.303 476.948 150.351L455.27 158.459C455.27 158.459 471.2 181.815 482.039 191.721C488.288 197.418 498.084 199.995 506.821 201.862C513.127 203.198 519.519 204.226 525.912 205.207C528.4 205.585 531.102 205.727 533.247 206.957C534.834 207.962 535.923 209.412 536.308 211.034C536.403 211.365 536.489 211.696 536.565 212.027C536.837 213.02 539.768 212.264 539.668 209.923Z" fill="white"/>
<path opacity="0.3" d="M528.671 191.957C527.813 191.803 526.955 191.649 526.083 191.472C526.154 195.562 523.838 202.607 522.994 204.746L525.711 205.172C527.492 200.914 528.49 196.459 528.671 191.957Z" fill="#407BFF"/>
<path opacity="0.3" d="M539.109 196.933C539.105 196.02 538.72 195.136 538.019 194.429C537.318 193.723 536.345 193.238 535.262 193.056L533.832 192.832C534.062 194.175 534.894 195.399 536.163 196.259C536.979 196.883 537.958 197.344 539.023 197.607C539.109 197.394 539.109 197.158 539.109 196.933Z" fill="#407BFF"/>
<path d="M444.801 103.472C445.373 105.269 442.942 107.148 441.011 105.6C439.209 104.003 437.237 102.543 435.119 101.238C433.132 100.21 435.777 98.4134 438.909 99.1108C440.245 99.3883 441.48 99.9303 442.506 100.69C443.533 101.45 444.32 102.405 444.801 103.472Z" fill="white"/>
<path d="M444.958 160.586C443.957 160.894 445.787 162.312 445.787 162.312C445.787 162.312 465.807 156.65 477.962 150.823C477.991 150.47 477.918 150.117 477.749 149.792C477.58 149.467 477.32 149.18 476.99 148.956C466.587 153.33 455.892 157.213 444.958 160.586Z" fill="#407BFF"/>
<path opacity="0.5" d="M444.958 160.586C443.957 160.894 445.787 162.312 445.787 162.312C445.787 162.312 465.807 156.65 477.962 150.823C477.991 150.47 477.918 150.117 477.749 149.792C477.58 149.467 477.32 149.18 476.99 148.956C466.587 153.33 455.892 157.213 444.958 160.586Z" fill="white"/>
<path d="M459.687 111.77C463.634 113.425 467.338 115.162 471.127 117.089C472.972 118.058 474.803 119.039 476.619 120.103C478.435 121.167 480.237 122.254 482.053 123.484L482.725 123.945L483.569 124.583C484.071 124.955 484.549 125.349 484.999 125.765C485.456 126.179 485.842 126.58 486.214 126.947C486.586 127.313 486.986 127.751 487.315 128.129C488.648 129.648 489.879 131.227 491.004 132.857C493.221 136.018 495.133 139.318 496.724 142.727C497.019 143.371 497.034 144.079 496.768 144.731C496.501 145.383 495.97 145.939 495.264 146.304C494.558 146.669 493.72 146.821 492.894 146.733C492.068 146.645 491.305 146.324 490.733 145.823L490.661 145.752C487.801 143.235 485.041 140.587 482.267 138.117C479.493 135.646 476.676 133.14 474.345 132.041C471.099 130.375 467.481 128.708 463.892 127.077L453.081 122.112C451.405 121.379 450.149 120.125 449.592 118.626C449.034 117.128 449.219 115.508 450.107 114.122C450.994 112.737 452.511 111.699 454.324 111.238C456.137 110.777 458.097 110.93 459.773 111.664L459.687 111.77Z" fill="#407BFF"/>
<path opacity="0.8" d="M459.687 111.77C463.634 113.425 467.338 115.162 471.127 117.089C472.972 118.058 474.803 119.039 476.619 120.103C478.435 121.167 480.237 122.254 482.053 123.484L482.725 123.945L483.569 124.583C484.071 124.955 484.549 125.349 484.999 125.765C485.456 126.179 485.842 126.58 486.214 126.947C486.586 127.313 486.986 127.751 487.315 128.129C488.648 129.648 489.879 131.227 491.004 132.857C493.221 136.018 495.133 139.318 496.724 142.727C497.019 143.371 497.034 144.079 496.768 144.731C496.501 145.383 495.97 145.939 495.264 146.304C494.558 146.669 493.72 146.821 492.894 146.733C492.068 146.645 491.305 146.324 490.733 145.823L490.661 145.752C487.801 143.235 485.041 140.587 482.267 138.117C479.493 135.646 476.676 133.14 474.345 132.041C471.099 130.375 467.481 128.708 463.892 127.077L453.081 122.112C451.405 121.379 450.149 120.125 449.592 118.626C449.034 117.128 449.219 115.508 450.107 114.122C450.994 112.737 452.511 111.699 454.324 111.238C456.137 110.777 458.097 110.93 459.773 111.664L459.687 111.77Z" fill="white"/>
<path d="M500.114 148.625L498.899 146.107C498.899 146.107 498.227 142.892 495.81 141.994L488.66 142.927L488.903 143.448C489.561 144.63 489.06 146.793 488.417 148.518C487.773 150.244 488.86 150.469 489.775 150.126C490.29 149.937 490.791 149.168 491.334 148.353C491.601 148.764 491.902 149.159 492.235 149.535L493.994 151.532C494.361 151.946 494.905 152.23 495.515 152.327C496.125 152.423 496.756 152.325 497.283 152.052L499.228 151.024C499.683 150.767 500.018 150.389 500.18 149.953C500.341 149.517 500.318 149.048 500.114 148.625Z" fill="#407BFF"/>
<path opacity="0.8" d="M500.114 148.625L498.899 146.107C498.899 146.107 498.227 142.892 495.81 141.994L488.66 142.927L488.903 143.448C489.561 144.63 489.06 146.793 488.417 148.518C487.773 150.244 488.86 150.469 489.775 150.126C490.29 149.937 490.791 149.168 491.334 148.353C491.601 148.764 491.902 149.159 492.235 149.535L493.994 151.532C494.361 151.946 494.905 152.23 495.515 152.327C496.125 152.423 496.756 152.325 497.283 152.052L499.228 151.024C499.683 150.767 500.018 150.389 500.18 149.953C500.341 149.517 500.318 149.048 500.114 148.625Z" fill="white"/>
<path opacity="0.3" d="M453.653 125.363L451.908 125.481L441.197 146.852C441.783 146.886 442.371 146.847 442.942 146.733C442.942 146.733 456.899 142.431 461.117 140.823C458.286 135.989 453.653 125.363 453.653 125.363Z" fill="#407BFF"/>
<path d="M434.105 130.965C435.407 136.552 437.823 141.92 441.255 146.852C446.489 145.362 455.212 142.549 459.445 140.942C456.6 135.9 454.075 130.74 451.88 125.481C447.404 125.729 437.58 128.838 434.105 130.965Z" fill="white"/>
<path opacity="0.3" d="M444.73 135.587C444.521 136.165 444.109 136.679 443.547 137.063C442.984 137.448 442.297 137.686 441.571 137.747C440.845 137.809 440.113 137.691 439.468 137.408C438.823 137.126 438.294 136.691 437.948 136.16C437.601 135.629 437.453 135.025 437.522 134.425C437.592 133.824 437.875 133.254 438.336 132.786C438.797 132.319 439.416 131.975 440.114 131.798C440.812 131.621 441.557 131.619 442.256 131.793C443.193 132.025 443.979 132.555 444.443 133.267C444.907 133.978 445.01 134.813 444.73 135.587Z" fill="#407BFF"/>
<path opacity="0.6" d="M447.462 131.521C447.406 131.719 447.279 131.897 447.099 132.034C446.918 132.171 446.691 132.259 446.448 132.288C446.206 132.316 445.958 132.283 445.739 132.193C445.519 132.103 445.337 131.96 445.217 131.784C445.098 131.607 445.045 131.404 445.067 131.203C445.089 131.001 445.185 130.809 445.341 130.653C445.497 130.497 445.707 130.383 445.942 130.327C446.178 130.271 446.428 130.275 446.661 130.339C446.951 130.416 447.194 130.58 447.343 130.8C447.492 131.019 447.534 131.277 447.462 131.521Z" fill="#407BFF"/>
<path opacity="0.6" d="M450.665 130.493C450.631 130.63 450.563 130.76 450.465 130.874C450.368 130.988 450.242 131.084 450.097 131.156C449.952 131.228 449.79 131.273 449.622 131.291C449.454 131.308 449.283 131.296 449.121 131.255C448.959 131.215 448.809 131.147 448.681 131.055C448.553 130.964 448.449 130.852 448.376 130.726C448.303 130.599 448.263 130.462 448.258 130.322C448.253 130.182 448.284 130.043 448.348 129.913C448.394 129.788 448.469 129.672 448.569 129.571C448.67 129.47 448.793 129.386 448.933 129.325C449.072 129.263 449.225 129.225 449.382 129.213C449.54 129.2 449.698 129.213 449.85 129.252C450.156 129.328 450.413 129.501 450.565 129.734C450.718 129.966 450.754 130.239 450.665 130.493Z" fill="#407BFF"/>
<path opacity="0.5" d="M455.155 139.701L441.927 144.015L441.141 141.864L454.354 137.549L455.155 139.701Z" fill="#407BFF"/>
<path opacity="0.2" d="M382.181 303.975C382.15 310.858 381.346 317.723 379.778 324.483C378.091 330.559 375.469 335.003 371.913 337.816C370.257 339.175 368.29 340.248 366.127 340.972C363.964 341.697 361.648 342.058 359.315 342.036C351.965 342.036 346.354 338.722 342.484 332.095C341.804 330.905 341.225 329.676 340.753 328.419C332.579 334.222 324.967 340.545 317.988 347.331L310.395 354.73C314.481 358.154 319.196 361.022 324.366 363.229C333.27 367.035 344.958 368.942 359.429 368.95C361.975 368.95 364.434 368.891 366.822 368.773C375.578 358.064 382.822 346.564 388.415 334.495L409.651 288.728L382.181 303.975Z" fill="black"/>
<path d="M190.748 366.42L215.773 387.105L285.843 332.532C261.69 324.908 214.729 346.551 190.748 366.42Z" fill="#263238"/>
<path d="M278.021 438.522C270.027 431.903 252.996 417.837 252.996 417.837L319.019 359.919C328.185 379.836 302.002 418.688 278.021 438.522Z" fill="#263238"/>
<path d="M373.801 308.148L401.1 264.638L348.462 287.226C331.554 294.474 315.943 303.623 302.072 314.412L212.34 384.233L256.427 420.674L340.897 346.504C353.956 335.036 365.029 322.128 373.801 308.148Z" fill="#407BFF"/>
<path opacity="0.6" d="M373.801 308.148L401.1 264.638L348.462 287.226C331.554 294.474 315.943 303.623 302.072 314.412L212.34 384.233L256.427 420.674L340.897 346.504C353.956 335.036 365.029 322.128 373.801 308.148Z" fill="white"/>
<path d="M317.746 348.785C327.934 348.785 336.193 341.958 336.193 333.537C336.193 325.116 327.934 318.289 317.746 318.289C307.558 318.289 299.299 325.116 299.299 333.537C299.299 341.958 307.558 348.785 317.746 348.785Z" fill="white"/>
<path d="M317.745 343.336C324.292 343.336 329.6 338.949 329.6 333.537C329.6 328.125 324.292 323.738 317.745 323.738C311.198 323.738 305.891 328.125 305.891 333.537C305.891 338.949 311.198 343.336 317.745 343.336Z" fill="#407BFF"/>
<path opacity="0.3" d="M271.342 407.577L228.17 371.893L263.52 344.399L304.603 378.37L271.342 407.577Z" fill="#407BFF"/>
<path d="M200.514 399.067C168.196 401.23 157.485 418.333 153.825 441.063C151.966 452.659 151.136 464.396 139.367 471.181C138.659 471.578 138.126 472.155 137.848 472.824C137.57 473.493 137.561 474.219 137.824 474.893C138.086 475.566 138.605 476.151 139.304 476.56C140.002 476.969 140.842 477.18 141.698 477.162C185.084 476.039 205.319 458.486 207.864 451.158C207.196 454.989 206.002 458.744 204.304 462.351C203.992 462.988 203.93 463.689 204.129 464.356C204.328 465.023 204.776 465.621 205.41 466.065C206.044 466.509 206.831 466.777 207.659 466.829C208.488 466.882 209.315 466.717 210.024 466.358C222.193 460.058 237.465 448.451 238.481 429.622C229.529 419.137 200.514 399.067 200.514 399.067Z" fill="#407BFF"/>
<path opacity="0.2" d="M200.514 399.067C168.196 401.23 157.485 418.333 153.825 441.063C151.966 452.659 151.136 464.396 139.367 471.181C138.659 471.578 138.126 472.155 137.848 472.824C137.57 473.493 137.561 474.219 137.824 474.893C138.086 475.566 138.605 476.151 139.304 476.56C140.002 476.969 140.842 477.18 141.698 477.162C185.084 476.039 205.319 458.486 207.864 451.158C207.196 454.989 206.002 458.744 204.304 462.351C203.992 462.988 203.93 463.689 204.129 464.356C204.328 465.023 204.776 465.621 205.41 466.065C206.044 466.509 206.831 466.777 207.659 466.829C208.488 466.882 209.315 466.717 210.024 466.358C222.193 460.058 237.465 448.451 238.481 429.622C229.529 419.137 200.514 399.067 200.514 399.067Z" fill="#1067B2"/>
<path d="M243.5 437.695L191.734 394.906L219.305 389.978L249.463 414.906L243.5 437.695Z" fill="#407BFF"/>
</svg>